<?xml version="1.0" standalone="no"?>
<!DOCTYPE svg PUBLIC "-//W3C//DTD SVG 20010904//EN"
 "http://www.w3.org/TR/2001/REC-SVG-20010904/DTD/svg10.dtd">
<svg version="1.0" xmlns="http://www.w3.org/2000/svg"
 width="500.000000pt" height="500.000000pt" viewBox="0 0 500.000000 500.000000"
 preserveAspectRatio="xMidYMid meet">
<metadata>
Created by potrace 1.11, written by Peter Selinger 2001-2013
</metadata>
<g transform="translate(0.000000,500.000000) scale(0.100000,-0.100000)"
fill="#000000" stroke="none">
<path d="M2380 3919 c-98 -11 -180 -29 -180 -38 0 -4 -15 -7 -34 -8 -40 -1
-171 -56 -253 -105 -122 -73 -271 -243 -259 -294 4 -16 2 -21 -11 -20 -25 2
-72 -142 -80 -244 -6 -79 -6 -80 23 -106 16 -15 22 -24 13 -21 -12 4 -15 -2
-12 -27 3 -31 3 -31 -9 -6 l-11 25 -5 -25 c-9 -54 47 -267 77 -290 3 -3 14
-21 24 -40 10 -19 33 -53 52 -75 34 -39 35 -40 51 -20 12 14 15 15 11 4 -4
-13 -1 -15 13 -12 10 3 27 0 37 -6 10 -6 13 -11 5 -11 -7 0 -10 -4 -7 -10 10
-17 44 -11 57 10 23 37 88 18 88 -25 0 -21 5 -25 30 -25 17 0 30 5 30 10 0 6
4 10 10 10 17 0 -1 -28 -23 -34 -20 -5 -20 -6 6 -26 16 -13 27 -31 27 -46 0
-30 21 -39 57 -25 l28 11 -32 -5 c-18 -2 -35 -1 -37 4 -7 11 19 18 57 17 15
-1 27 4 27 10 0 7 6 15 13 17 6 3 4 6 -7 6 -10 1 -33 16 -50 34 -39 40 -93 70
-101 56 -5 -7 -11 -6 -21 2 -16 13 -19 33 -4 24 6 -3 7 1 4 10 -4 10 4 19 26
29 18 7 28 16 22 20 -6 3 -35 -5 -66 -19 -66 -30 -82 -32 -41 -5 28 19 29 20
7 20 -16 0 -22 5 -20 16 2 12 -5 18 -22 19 -14 1 -34 6 -45 10 -19 7 -19 7 -2
-6 17 -13 16 -15 -12 -32 -19 -11 -32 -14 -36 -7 -3 5 2 10 12 11 14 0 12 3
-7 11 -25 11 -25 11 -3 17 21 6 20 8 -16 48 -21 23 -42 39 -46 35 -4 -4 -5 -1
-3 7 2 8 -6 17 -16 19 -14 3 -17 0 -13 -12 5 -14 3 -15 -13 -6 -11 6 -19 16
-17 23 1 7 -4 11 -10 10 -7 -2 -13 2 -13 7 0 33 115 -17 124 -53 3 -14 15 -29
27 -32 29 -10 32 -2 9 23 -11 12 -17 28 -14 36 7 18 20 21 29 6 3 -5 1 -10 -4
-10 -6 0 -11 -5 -11 -11 0 -6 7 -9 15 -5 8 3 15 0 15 -7 0 -8 3 -8 9 2 5 7 14
10 20 7 6 -4 9 -12 5 -18 -3 -5 2 -9 12 -7 11 1 27 -2 38 -6 10 -5 21 -4 25 2
8 14 64 10 69 -5 5 -15 23 -16 19 -1 -3 16 34 26 68 18 23 -5 25 -7 8 -8 -12
0 -25 -6 -29 -13 -4 -6 -3 -8 3 -5 16 10 108 -21 128 -43 9 -10 15 -26 12 -34
-7 -18 38 -50 76 -52 21 -1 25 1 17 11 -8 9 -5 14 12 18 12 4 25 1 29 -4 5 -8
9 -8 13 0 4 6 17 9 29 6 19 -5 65 -12 91 -14 4 -1 6 -8 2 -16 -3 -8 -1 -15 5
-15 5 0 12 7 16 16 3 8 12 13 19 10 22 -8 16 0 -11 18 -21 14 -24 14 -19 1 6
-14 3 -14 -22 -3 -16 7 -32 17 -36 23 -5 7 -11 6 -16 -2 -4 -7 -13 -9 -21 -4
-11 7 -9 10 8 16 31 9 26 23 -11 33 -39 10 -61 54 -38 75 10 10 12 9 7 -4 -3
-10 3 -26 14 -38 24 -25 48 -29 28 -4 -12 15 -12 16 5 10 15 -6 17 -5 7 6 -9
12 -7 13 14 9 19 -3 25 -9 21 -21 -5 -12 -3 -12 8 2 19 25 10 47 -19 47 -13 0
-27 5 -31 11 -3 6 -15 9 -25 6 -10 -3 -21 -1 -24 3 -8 13 26 17 66 7 22 -5 42
-18 49 -33 11 -19 20 -23 52 -21 21 1 38 3 38 4 0 1 -14 10 -31 18 -43 23 -30
29 17 8 21 -9 42 -16 47 -15 12 3 8 -10 -8 -22 -15 -11 -2 -14 77 -17 9 0 19
-7 22 -15 3 -8 12 -14 20 -14 7 0 16 -7 20 -15 3 -8 14 -15 25 -15 11 0 26 -7
35 -15 19 -20 27 -19 19 1 -5 14 -3 15 16 5 16 -9 24 -9 35 1 11 11 2 18 -52
41 -36 15 -72 25 -79 22 -8 -2 -12 -1 -9 4 3 5 -2 11 -12 14 -146 43 -355 134
-419 183 -17 13 -35 24 -40 24 -4 0 -20 19 -35 43 -30 47 -52 130 -44 162 3
12 8 42 11 67 l5 45 -45 13 c-30 8 -44 17 -41 25 2 7 -4 15 -15 18 -16 4 -19
2 -14 -11 5 -14 4 -15 -6 -4 -7 6 -21 12 -32 12 -24 0 -12 19 20 31 16 6 23
15 19 24 -3 8 -1 17 5 20 5 4 12 -1 15 -9 3 -9 10 -13 16 -10 5 3 8 -5 7 -18
-5 -54 -1 -61 31 -54 18 3 29 2 25 -4 -3 -5 4 -14 16 -20 18 -10 25 -8 48 13
38 36 84 57 159 72 72 15 321 23 341 11 6 -4 14 0 17 9 4 10 13 13 25 10 11
-4 19 -2 19 3 0 5 9 13 21 18 l21 10 -23 22 c-13 12 -37 33 -54 47 -16 14 -24
25 -17 25 6 0 11 3 11 8 -5 32 3 48 26 50 16 1 25 -4 26 -13 3 -30 4 -34 17
-46 6 -7 12 -20 12 -28 0 -9 5 -23 10 -31 9 -13 11 -13 20 0 10 13 11 13 9 0
-4 -31 11 -47 42 -42 24 3 27 7 18 18 -6 8 -15 11 -20 8 -14 -8 -38 59 -26 74
14 17 25 15 32 -8 9 -29 24 -24 19 6 -3 14 -1 31 4 38 5 6 12 21 14 33 5 19 4
20 -13 10 -16 -10 -21 -8 -35 11 l-16 23 -15 -20 c-8 -12 -21 -21 -29 -21 -8
0 -13 -5 -12 -11 2 -6 -3 -14 -11 -17 -10 -3 -12 0 -8 11 4 11 -6 18 -39 27
-24 7 -44 17 -44 22 0 11 70 -1 89 -16 12 -9 13 -7 8 12 -4 17 -2 22 7 19 7
-3 19 -1 27 4 11 6 11 11 1 21 -9 9 -12 9 -12 0 0 -10 -4 -10 -19 0 -11 7 -17
16 -14 21 3 4 -3 18 -14 29 -13 16 -14 20 -3 16 8 -2 19 -14 25 -26 11 -25 25
-29 25 -8 0 7 8 20 17 27 11 10 14 10 9 2 -5 -10 2 -13 28 -13 19 0 38 5 41
10 3 6 12 10 18 10 7 0 -1 -9 -18 -20 -23 -15 -30 -27 -31 -55 -1 -24 3 -35
13 -35 8 0 11 5 7 11 -5 8 -1 8 14 0 29 -15 38 4 12 26 -20 18 -28 39 -10 28
6 -3 15 -3 21 1 8 5 8 9 -1 14 -8 5 -7 9 4 13 12 5 16 0 16 -15 0 -12 8 -30
17 -40 16 -18 16 -18 -3 -12 -16 6 -17 5 -6 -7 9 -10 15 -10 24 -1 20 20 27
14 19 -15 -4 -16 -5 -39 -1 -53 7 -28 36 -35 34 -7 -2 23 54 80 72 73 9 -3 14
1 14 12 0 13 2 14 9 3 6 -9 11 -10 15 -2 4 6 4 11 -1 11 -4 0 -2 4 6 9 9 6 19
4 28 -5 14 -14 43 -19 43 -9 0 4 -18 14 -39 23 -36 16 -38 19 -25 37 12 16 18
17 32 8 9 -6 16 -16 15 -22 -2 -6 3 -8 10 -5 8 3 25 0 40 -5 20 -8 30 -7 42 5
8 9 15 18 15 20 0 19 -272 120 -291 108 -7 -4 -9 -3 -6 3 4 6 -17 17 -51 26
-186 51 -441 69 -642 46z m395 -31 c5 4 5 2 1 -5 -8 -14 -36 -6 -36 9 0 7 5 6
13 -1 8 -6 18 -7 22 -3z m68 -3 c-3 -9 -8 -14 -10 -11 -3 3 -2 9 2 15 9 16 15
13 8 -4z m-97 -62 c-3 -7 -1 -13 5 -13 6 0 7 -5 4 -10 -4 -6 -11 -7 -17 -4 -6
4 -14 1 -18 -6 -6 -9 -15 -10 -36 -2 -27 10 -27 10 -6 11 27 1 59 27 40 33 -7
3 -9 12 -4 24 7 19 8 19 22 -1 8 -11 12 -25 10 -32z m228 -8 c-5 -11 -2 -13
10 -9 9 3 16 1 16 -4 0 -6 -10 -14 -22 -18 -12 -3 -30 -16 -40 -28 -15 -18
-17 -19 -18 -3 0 9 -4 17 -10 17 -5 0 -10 12 -10 26 0 14 4 23 8 20 7 -4 44 3
69 13 1 1 0 -6 -3 -14z m119 -10 c-7 -21 -13 -19 -13 6 0 11 4 18 10 14 5 -3
7 -12 3 -20z m58 -26 c7 -14 14 -17 27 -10 24 12 41 3 35 -19 -5 -21 -23 -28
-23 -10 0 6 -4 10 -9 10 -6 0 -6 -12 -1 -30 l9 -31 -38 22 c-29 16 -43 19 -57
11 -25 -13 -70 -8 -66 8 1 7 -7 20 -18 30 l-20 18 26 6 c14 4 29 5 32 1 3 -3
0 -5 -6 -5 -22 0 -12 -19 18 -35 34 -17 44 -19 35 -5 -3 5 0 20 7 32 7 13 11
26 10 30 -4 15 29 -5 39 -23z m-356 11 c3 -5 2 -10 -4 -10 -5 0 -13 5 -16 10
-3 6 -2 10 4 10 5 0 13 -4 16 -10z m79 -19 c-2 -3 -12 3 -22 13 -16 17 -16 18
5 5 12 -7 20 -15 17 -18z m-49 9 c3 -5 1 -10 -4 -10 -6 0 -11 5 -11 10 0 6 2
10 4 10 3 0 8 -4 11 -10z m-427 -19 c4 -1 16 -8 26 -16 20 -15 20 -15 0 -30
-10 -8 -35 -15 -54 -15 -20 0 -47 -8 -60 -17 -24 -16 -24 -16 -11 0 11 13 11
17 1 17 -25 0 1 14 28 16 72 3 82 5 82 14 0 6 -11 10 -24 10 -28 0 -56 9 -56
19 0 5 45 7 68 2z m-228 -82 c0 -5 -16 -9 -35 -9 -19 0 -35 -4 -35 -9 0 -5 24
-6 54 -4 34 3 56 0 61 -7 5 -7 -1 -9 -19 -4 -14 3 -34 3 -43 -1 -10 -4 -35 -8
-55 -10 l-37 -2 21 28 c17 22 27 27 47 24 14 -3 20 -2 13 1 -6 3 -9 10 -6 15
6 11 34 -7 34 -22z m560 21 c0 -5 -2 -10 -4 -10 -3 0 -8 5 -11 10 -3 6 -1 10
4 10 6 0 11 -4 11 -10z m-523 -16 c-3 -3 -12 -4 -19 -1 -8 3 -5 6 6 6 11 1 17
-2 13 -5z m-156 -29 c0 -13 -41 -19 -41 -7 0 11 20 22 33 18 5 -1 8 -6 8 -11z
m229 5 c0 -5 -7 -10 -16 -10 -8 0 -12 5 -9 10 3 6 10 10 16 10 5 0 9 -4 9 -10z
m-443 -42 c-16 -6 -33 -6 -37 -2 -5 5 7 10 28 10 37 2 37 2 9 -8z m167 -20 c3
-13 1 -27 -4 -32 -7 -7 -10 -6 -10 2 0 13 -38 16 -64 6 -9 -3 -16 -10 -16 -15
0 -4 8 -6 18 -2 16 6 16 5 -1 -14 -12 -14 -15 -23 -8 -28 6 -3 16 -15 22 -27
9 -16 8 -19 -3 -15 -7 2 -12 10 -10 16 1 6 -5 14 -13 17 -8 4 -15 16 -15 28 0
12 -5 27 -12 34 -9 9 -9 12 0 12 6 0 9 8 6 18 -4 10 -3 13 3 6 4 -6 25 -11 45
-12 29 -1 36 2 31 13 -3 9 1 15 10 15 8 0 17 -10 21 -22z m106 -2 c0 -3 -4 -8
-10 -11 -5 -3 -10 -1 -10 4 0 6 5 11 10 11 6 0 10 -2 10 -4z m810 -9 c0 -4 5
-5 10 -2 6 3 10 1 10 -4 0 -12 -6 -13 -37 -5 -28 8 -30 23 -3 21 11 -1 20 -5
20 -10z m-196 -12 c3 -9 0 -15 -9 -15 -8 0 -15 7 -15 15 0 8 4 15 9 15 5 0 11
-7 15 -15z m-624 -10 c0 -12 -19 -12 -23 0 -4 9 -1 12 9 8 7 -3 14 -7 14 -8z
m750 -5 c0 -5 -5 -10 -11 -10 -5 0 -7 5 -4 10 3 6 8 10 11 10 2 0 4 -4 4 -10z
m-630 -30 c0 -5 -4 -10 -10 -10 -5 0 -10 5 -10 10 0 6 5 10 10 10 6 0 10 -4
10 -10z m-490 -15 c0 -2 -10 -10 -22 -16 -21 -11 -22 -11 -9 4 13 16 31 23 31
12z m535 -5 c3 -5 2 -10 -4 -10 -5 0 -13 5 -16 10 -3 6 -2 10 4 10 5 0 13 -4
16 -10z m-200 -10 c-3 -5 -14 -10 -23 -9 -14 0 -13 2 3 9 27 11 27 11 20 0z
m255 0 c0 -5 -5 -10 -11 -10 -5 0 -7 5 -4 10 3 6 8 10 11 10 2 0 4 -4 4 -10z
m30 -10 c0 -5 -4 -10 -10 -10 -5 0 -10 5 -10 10 0 6 5 10 10 10 6 0 10 -4 10
-10z m-620 -10 c0 -5 -5 -10 -11 -10 -5 0 -7 5 -4 10 3 6 8 10 11 10 2 0 4 -4
4 -10z m250 -21 c0 -5 -4 -9 -10 -9 -5 0 -10 7 -10 16 0 8 5 12 10 9 6 -3 10
-10 10 -16z m83 -20 c4 -16 3 -18 -9 -8 -7 6 -11 15 -8 20 8 13 11 11 17 -12z
m-416 -37 c0 -10 -7 -19 -14 -19 -17 0 -17 24 0 30 6 3 13 6 14 6 1 1 1 -7 0
-17z m423 -14 c0 -13 -23 -5 -28 10 -2 7 2 10 12 6 9 -3 16 -11 16 -16z m100
-29 c0 -11 -27 -12 -34 -1 -2 4 4 9 15 9 10 1 19 -2 19 -8z m-360 -89 c0 -5
-4 -10 -10 -10 -5 0 -10 5 -10 10 0 6 5 10 10 10 6 0 10 -4 10 -10z m140 -20
c0 -5 -7 -10 -15 -10 -8 0 -15 5 -15 10 0 6 7 10 15 10 8 0 15 -4 15 -10z m40
-70 c0 -5 -4 -10 -10 -10 -5 0 -10 5 -10 10 0 6 5 10 10 10 6 0 10 -4 10 -10z
m47 -16 c-3 -3 -12 -4 -19 -1 -8 3 -5 6 6 6 11 1 17 -2 13 -5z m-37 -8 c0 -2
-7 -6 -15 -10 -8 -3 -15 -1 -15 4 0 6 7 10 15 10 8 0 15 -2 15 -4z m-345 -106
c3 -5 2 -10 -4 -10 -5 0 -13 5 -16 10 -3 6 -2 10 4 10 5 0 13 -4 16 -10z m48
-59 c16 -26 17 -34 6 -47 -11 -14 -13 -14 -21 0 -5 9 -7 20 -4 25 3 5 -1 14
-9 21 -18 15 -20 43 -3 38 7 -3 21 -19 31 -37z m71 3 c9 -23 8 -26 -6 -17 -7
4 -19 8 -26 9 -8 2 -17 6 -20 10 -4 4 1 4 11 1 9 -4 17 -2 17 3 0 16 17 11 24
-6z m-116 -21 c9 -15 10 -23 3 -23 -6 0 -11 7 -11 15 0 8 -6 15 -14 15 -8 0
-18 5 -22 11 -13 22 29 4 44 -18z m518 -2 c-10 -16 -32 -13 -47 6 -13 15 -12
15 9 4 21 -11 27 -8 22 14 -1 6 4 5 10 -2 7 -6 9 -16 6 -22z m-351 -19 c-6 -7
-34 11 -29 19 3 5 11 3 19 -4 7 -6 12 -13 10 -15z m-195 -4 c0 -6 -6 -5 -15 2
-11 9 -15 9 -15 1 0 -7 -5 -9 -11 -5 -8 4 -7 9 2 14 15 10 39 2 39 -12z m120
18 c0 -3 -4 -8 -10 -11 -5 -3 -10 -1 -10 4 0 6 5 11 10 11 6 0 10 -2 10 -4z
m486 -21 c0 -29 -2 -29 -35 -11 -14 8 -32 11 -40 9 -11 -4 -11 -1 2 9 10 7 31
15 46 16 23 2 27 -2 27 -23z m-342 -65 c-12 -12 -16 -12 -28 5 -12 17 -12 21
2 31 24 17 47 -14 26 -36z m106 -1 c0 -4 9 -9 20 -12 11 -3 20 -13 20 -22 0
-10 -5 -14 -12 -11 -7 3 -21 9 -31 12 -10 4 -16 12 -13 20 3 7 -2 18 -9 24 -8
7 -12 17 -8 23 6 10 33 -18 33 -34z m-369 18 c-6 -8 -8 -17 -4 -20 3 -4 1 -7
-5 -7 -18 0 -26 22 -11 31 21 13 33 11 20 -4z m153 -11 c-3 -8 -15 -11 -32 -8
-24 5 -26 4 -13 -11 17 -21 2 -22 -25 -2 -10 8 -28 15 -39 16 -22 2 44 15 87
18 19 1 26 -3 22 -13z m435 -13 c10 -20 9 -21 -16 -14 -32 9 -41 28 -16 33 22
5 18 7 32 -19z m-399 -23 c0 -5 -7 -7 -15 -4 -8 4 -15 8 -15 10 0 2 7 4 15 4
8 0 15 -4 15 -10z m78 -10 c7 -11 8 -20 3 -20 -6 0 -13 5 -16 10 -3 6 -11 10
-16 10 -6 0 -7 -5 -3 -12 4 -7 3 -8 -5 -4 -9 6 -9 11 0 22 15 19 22 18 37 -6z
m-258 6 c0 -3 -4 -8 -10 -11 -5 -3 -10 -1 -10 4 0 6 5 11 10 11 6 0 10 -2 10
-4z m334 -42 c9 -24 7 -28 -9 -14 -17 14 -20 30 -6 30 5 0 12 -7 15 -16z m163
10 c-3 -3 -12 -4 -19 -1 -8 3 -5 6 6 6 11 1 17 -2 13 -5z m-454 -29 c12 -1 31
-3 42 -4 13 -1 16 -4 8 -9 -13 -8 -2 -35 13 -32 5 1 10 -4 13 -10 2 -8 -2 -10
-10 -6 -8 3 -22 9 -31 12 -10 4 -18 10 -18 15 0 5 -7 9 -15 9 -8 0 -15 4 -15
9 0 5 -7 8 -16 7 -9 0 -19 5 -21 12 -3 8 1 10 12 6 9 -4 26 -8 38 -9z m257 1
c0 -3 -4 -8 -10 -11 -5 -3 -10 -1 -10 4 0 6 5 11 10 11 6 0 10 -2 10 -4z m460
-6 c0 -5 -5 -10 -11 -10 -5 0 -7 5 -4 10 3 6 8 10 11 10 2 0 4 -4 4 -10z m-90
-50 c0 -5 -2 -10 -4 -10 -3 0 -8 5 -11 10 -3 6 -1 10 4 10 6 0 11 -4 11 -10z
m-40 -30 c0 -5 -4 -10 -10 -10 -5 0 -10 5 -10 10 0 6 5 10 10 10 6 0 10 -4 10
-10z m-515 -41 c12 -19 -5 -23 -22 -6 -16 16 -16 17 -1 17 9 0 20 -5 23 -11z
m100 -18 c-5 -11 -3 -12 10 -1 9 7 18 11 20 8 3 -3 -1 -11 -9 -17 -11 -9 -20
-10 -33 -2 -10 6 -13 11 -8 11 6 0 3 5 -5 10 -12 7 -10 9 8 7 15 -1 21 -6 17
-16z m220 -91 c3 -5 -1 -10 -9 -10 -9 0 -16 5 -16 10 0 6 4 10 9 10 6 0 13 -4
16 -10z"/>
<path d="M2937 3803 c-4 -3 -7 -11 -7 -17 0 -6 5 -5 12 2 6 6 9 14 7 17 -3 3
-9 2 -12 -2z"/>
<path d="M3127 3768 c7 -8 10 -17 7 -20 -2 -3 2 -8 11 -12 13 -4 14 -2 5 14
-5 10 -16 22 -23 26 -9 6 -9 5 0 -8z"/>
<path d="M2200 2949 c0 -5 5 -7 10 -4 6 3 10 8 10 11 0 2 -4 4 -10 4 -5 0 -10
-5 -10 -11z"/>
<path d="M3210 3653 c-20 -8 -35 -24 -43 -46 -4 -11 -12 -15 -18 -11 -8 5 -9
3 -5 -5 6 -9 12 -8 26 4 10 9 21 15 26 14 23 -4 32 3 30 26 0 14 -1 25 -1 24
0 0 -7 -3 -15 -6z"/>
<path d="M3280 3640 c0 -5 7 -7 15 -4 8 4 15 8 15 10 0 2 -7 4 -15 4 -8 0 -15
-4 -15 -10z"/>
<path d="M2998 3589 c-10 -5 -23 -19 -29 -31 -9 -16 -8 -19 2 -13 9 6 11 3 6
-8 -8 -21 0 -22 20 -2 8 8 19 12 25 9 16 -10 27 17 15 38 -13 21 -16 21 -39 7z
m2 -19 c0 -5 -5 -10 -11 -10 -5 0 -7 5 -4 10 3 6 8 10 11 10 2 0 4 -4 4 -10z"/>
<path d="M3113 3558 l-22 -22 25 -23 c28 -25 39 -28 49 -12 4 6 1 10 -6 8 -27
-3 -37 1 -42 21 -3 11 -2 20 3 20 4 0 10 7 14 15 7 20 4 19 -21 -7z"/>
<path d="M2780 3540 c0 -5 7 -7 15 -4 8 4 15 8 15 10 0 2 -7 4 -15 4 -8 0 -15
-4 -15 -10z"/>
<path d="M3145 3540 c3 -5 8 -10 11 -10 2 0 4 5 4 10 0 6 -5 10 -11 10 -5 0
-7 -4 -4 -10z"/>
<path d="M3008 3507 c-15 -12 -15 -14 3 -25 10 -7 19 -17 19 -23 0 -8 -5 -7
-15 1 -12 10 -15 10 -15 -3 0 -16 9 -16 48 -3 24 8 28 21 10 32 -7 4 -8 3 -4
-4 4 -7 1 -12 -7 -12 -18 0 -29 37 -13 44 6 2 7 5 1 5 -5 0 -18 -5 -27 -12z"/>
<path d="M3097 3493 c10 -17 21 -30 24 -27 11 6 40 -7 34 -16 -3 -4 5 -10 16
-13 20 -5 20 -5 4 13 -10 11 -27 22 -38 26 -12 4 -29 16 -39 28 -18 20 -18 20
-1 -11z"/>
<path d="M2961 3474 c0 -11 3 -14 6 -6 3 7 2 16 -1 19 -3 4 -6 -2 -5 -13z"/>
<path d="M3080 3431 c0 -5 7 -11 15 -15 8 -3 12 -12 9 -21 -3 -8 -2 -15 4 -15
6 0 9 8 7 18 -2 9 -4 20 -4 23 -1 10 -31 19 -31 10z"/>
<path d="M2882 3422 c-30 -2 -50 -7 -47 -13 4 -5 18 -6 33 -3 26 6 26 6 7 -9
-20 -16 -19 -16 7 -17 14 0 28 -5 30 -12 6 -16 119 -14 150 3 l23 13 -30 6
c-16 3 -34 1 -38 -5 -5 -5 -5 1 -2 14 5 16 4 21 -4 17 -6 -4 -11 -4 -11 1 0 9
-32 10 -118 5z"/>
<path d="M3045 3421 c-3 -5 -1 -12 5 -16 5 -3 10 1 10 9 0 18 -6 21 -15 7z"/>
<path d="M3200 3376 c0 -2 7 -9 15 -16 9 -7 15 -8 15 -2 0 5 -7 12 -15 16 -8
3 -15 4 -15 2z"/>
<path d="M3079 3359 c-15 -9 20 -28 39 -22 14 6 16 -13 2 -22 -6 -3 -21 2 -34
13 -17 13 -35 17 -56 14 -37 -5 -36 -8 9 -15 18 -3 38 -10 44 -16 14 -14 47
-14 47 0 0 8 4 8 13 2 6 -6 21 -13 32 -17 14 -5 11 1 -10 18 -16 14 -24 25
-17 26 7 0 11 4 8 9 -8 12 -63 19 -77 10z"/>
<path d="M1940 2740 c-12 -7 -10 -9 7 -7 12 0 19 5 17 9 -6 10 -6 10 -24 -2z"/>
<path d="M2000 2721 c0 -7 -9 -11 -22 -9 -11 2 -23 -2 -25 -9 -3 -8 3 -11 16
-8 11 2 22 1 25 -3 4 -6 32 -7 82 -3 26 2 4 21 -25 21 -15 0 -32 5 -39 12 -9
9 -12 9 -12 -1z"/>
<path d="M2170 2674 c0 -8 5 -12 10 -9 6 4 8 11 5 16 -9 14 -15 11 -15 -7z"/>
<path d="M2725 2680 c-4 -6 0 -10 8 -10 10 0 13 -7 10 -21 -3 -12 -1 -24 4
-28 5 -3 15 -15 22 -26 7 -11 10 -13 8 -4 -4 12 1 14 23 11 15 -2 31 1 34 7 4
6 0 11 -9 11 -11 0 -15 5 -11 16 3 8 2 12 -4 9 -6 -3 -10 -1 -10 5 0 7 -7 9
-16 6 -8 -3 -13 -2 -10 3 3 4 -6 13 -19 19 -15 7 -26 8 -30 2z"/>
<path d="M2568 2673 c7 -3 16 -2 19 1 4 3 -2 6 -13 5 -11 0 -14 -3 -6 -6z"/>
<path d="M2906 2671 c5 -5 20 -12 34 -16 24 -7 24 -7 5 9 -21 16 -56 23 -39 7z"/>
<path d="M2048 2656 c-10 -7 -18 -20 -18 -29 0 -12 6 -14 28 -7 52 15 57 17
49 13 -4 -3 -5 -9 -1 -14 3 -5 -2 -9 -10 -9 -26 0 -18 -34 14 -65 20 -19 41
-29 65 -30 34 -1 34 0 20 22 -14 21 -14 22 14 20 20 -1 27 -6 23 -17 -4 -11
-2 -12 7 -4 16 15 3 44 -21 44 -10 0 -30 -11 -44 -25 -27 -27 -44 -34 -25 -11
10 11 8 17 -6 25 -14 8 -16 12 -5 22 10 11 12 10 12 -3 0 -12 7 -16 22 -13 28
6 48 25 26 25 -9 0 -20 5 -24 12 -4 7 -3 8 4 4 21 -13 13 0 -20 30 -23 21 -29
24 -24 10 5 -14 3 -16 -6 -9 -23 18 -62 22 -80 9z"/>
<path d="M2975 2639 c-4 -6 -4 -13 -1 -16 3 -4 6 -1 6 6 0 7 5 9 12 5 7 -4 8
-3 4 4 -9 15 -13 15 -21 1z"/>
<path d="M2673 2632 c-8 -5 -7 -11 3 -19 15 -14 27 -3 16 14 -4 7 -13 9 -19 5z"/>
<path d="M2222 2614 c10 -10 20 -15 24 -12 3 4 -5 12 -18 18 -22 12 -22 12 -6
-6z"/>
<path d="M2350 2620 c-12 -8 -9 -9 12 -8 15 1 24 6 22 10 -7 10 -16 10 -34 -2z"/>
<path d="M2587 2610 c3 -11 9 -20 13 -20 5 0 6 9 3 20 -3 11 -9 20 -13 20 -5
0 -6 -9 -3 -20z"/>
<path d="M2400 2606 c0 -7 10 -16 22 -19 31 -9 33 -2 3 17 -20 13 -25 14 -25
2z"/>
<path d="M2560 2609 c0 -5 -4 -8 -9 -5 -5 3 -11 0 -14 -7 -4 -10 2 -13 18 -9
15 2 22 9 18 18 -6 17 -13 18 -13 3z"/>
<path d="M2627 2609 c7 -7 15 -10 18 -7 3 3 -2 9 -12 12 -14 6 -15 5 -6 -5z"/>
<path d="M3030 2610 c0 -5 7 -7 15 -4 8 4 15 8 15 10 0 2 -7 4 -15 4 -8 0 -15
-4 -15 -10z"/>
<path d="M1765 2589 c4 -6 13 -8 20 -5 7 2 17 -6 23 -19 17 -37 60 -61 82 -47
14 9 19 8 24 -3 4 -10 -1 -15 -16 -15 -17 0 -11 -7 25 -29 36 -23 53 -29 80
-24 34 5 34 5 20 34 -8 16 -19 29 -24 29 -5 0 -9 6 -9 13 0 9 -20 13 -75 12
-75 0 -76 0 -95 33 -12 20 -27 32 -40 32 -13 0 -18 -4 -15 -11z m235 -119 c0
-5 -2 -10 -4 -10 -3 0 -8 5 -11 10 -3 6 -1 10 4 10 6 0 11 -4 11 -10z"/>
<path d="M3086 2583 c-9 -24 -7 -26 19 -21 16 3 25 1 25 -7 0 -14 22 -25 46
-25 9 0 12 5 9 11 -4 6 -14 8 -22 5 -8 -3 -12 -2 -9 3 3 5 -9 18 -28 29 -30
18 -35 18 -40 5z"/>
<path d="M2567 2573 c-4 -3 -7 -11 -7 -17 0 -6 5 -5 12 2 6 6 9 14 7 17 -3 3
-9 2 -12 -2z"/>
<path d="M2506 2547 c-6 -24 0 -37 19 -37 24 0 27 18 6 39 -19 19 -19 19 -25
-2z"/>
<path d="M2420 2556 c0 -2 7 -6 15 -10 8 -3 15 -1 15 4 0 6 -7 10 -15 10 -8 0
-15 -2 -15 -4z"/>
<path d="M2455 2530 c-16 -7 -17 -9 -3 -9 9 -1 20 4 23 9 7 11 7 11 -20 0z"/>
<path d="M2562 2520 c-7 -11 -8 -20 -3 -20 9 0 24 30 18 36 -1 2 -8 -6 -15
-16z"/>
<path d="M2515 2491 c-2 -5 -20 -7 -40 -5 -19 1 -38 -2 -41 -8 -4 -7 -2 -8 4
-4 7 4 20 2 29 -4 14 -8 14 -10 3 -9 -54 5 -90 -12 -72 -34 7 -7 9 -17 5 -20
-3 -4 -1 -7 6 -7 7 0 11 7 8 15 -8 18 7 27 66 41 38 9 47 9 47 -2 0 -8 -4 -15
-10 -15 -5 -1 -14 -2 -19 -3 -5 0 -13 -5 -18 -10 -5 -5 2 -6 17 -1 14 5 46 8
73 8 39 0 47 3 47 18 0 11 -4 19 -10 19 -5 0 -12 0 -15 0 -3 0 -21 6 -40 14
-19 8 -37 11 -40 7z"/>
<path d="M2580 2490 c0 -5 7 -7 15 -4 8 4 15 8 15 10 0 2 -7 4 -15 4 -8 0 -15
-4 -15 -10z"/>
<path d="M2220 2419 c12 -24 29 -52 37 -61 8 -9 12 -22 8 -27 -8 -13 5 -14 24
-2 12 8 12 12 2 25 -8 9 -19 16 -25 16 -6 0 -20 18 -30 41 -11 22 -24 43 -29
46 -4 3 1 -15 13 -38z"/>
<path d="M2640 2456 c0 -2 7 -9 15 -16 9 -7 15 -8 15 -2 0 5 -7 12 -15 16 -8
3 -15 4 -15 2z"/>
<path d="M2680 2432 c0 -4 9 -13 20 -20 11 -7 20 -9 20 -4 0 4 -9 13 -20 20
-11 7 -20 9 -20 4z"/>
<path d="M3300 2432 c0 -15 47 -68 54 -62 2 3 -9 21 -25 40 -16 19 -29 29 -29
22z"/>
<path d="M2630 2426 c0 -2 7 -7 16 -10 8 -3 12 -2 9 4 -6 10 -25 14 -25 6z"/>
<path d="M2100 2410 c0 -5 5 -10 10 -10 6 0 10 5 10 10 0 6 -4 10 -10 10 -5 0
-10 -4 -10 -10z"/>
<path d="M2740 2412 c0 -4 7 -17 15 -28 17 -22 19 -34 6 -34 -5 0 -11 7 -13
16 -5 24 -70 43 -103 30 l-27 -11 21 -26 c11 -15 17 -30 13 -33 -4 -4 0 -13 9
-19 9 -7 19 -22 23 -34 4 -11 13 -20 21 -19 24 4 30 16 7 16 -34 0 -26 15 8
16 35 1 50 12 32 23 -12 7 12 36 48 56 13 8 13 7 1 -8 -19 -24 2 -21 24 3 19
21 51 28 40 9 -4 -6 2 -5 14 3 20 12 19 13 -22 30 -49 20 -77 22 -77 8 0 -7
-6 -7 -20 0 -11 6 -20 7 -20 2z"/>
<path d="M2190 2400 c-13 -8 -12 -10 3 -10 9 0 17 5 17 10 0 12 -1 12 -20 0z"/>
<path d="M2446 2402 c-2 -4 4 -8 14 -8 10 0 16 4 14 8 -3 4 -9 8 -14 8 -5 0
-11 -4 -14 -8z"/>
<path d="M2165 2370 c3 -5 8 -10 11 -10 2 0 4 5 4 10 0 6 -5 10 -11 10 -5 0
-7 -4 -4 -10z"/>
<path d="M2194 2367 c-3 -10 -4 -20 -2 -23 11 -10 48 -12 53 -3 4 5 -1 9 -9 9
-8 0 -19 8 -25 18 -9 16 -10 16 -17 -1z"/>
<path d="M2830 2349 c0 -5 5 -7 10 -4 6 3 10 8 10 11 0 2 -4 4 -10 4 -5 0 -10
-5 -10 -11z"/>
<path d="M2373 2339 c14 -8 22 -8 30 0 8 8 3 11 -18 11 -26 -1 -28 -2 -12 -11z"/>
<path d="M2419 2338 c-1 -7 -1 -17 0 -22 1 -4 -10 -5 -24 -2 -14 4 -34 2 -44
-4 -14 -7 -21 -6 -23 2 -3 9 -6 9 -12 0 -4 -8 2 -16 19 -22 33 -13 72 -13 80
-1 3 5 19 12 35 16 19 4 30 13 30 23 0 14 -2 15 -10 2 -8 -12 -10 -12 -16 3
-7 20 -33 23 -35 5z"/>
<path d="M2664 2244 c4 -9 2 -13 -5 -8 -7 4 -10 1 -7 -6 8 -26 28 -22 28 4 0
14 -5 26 -11 26 -6 0 -8 -7 -5 -16z"/>
<path d="M3417 2240 c6 -22 23 -38 23 -21 0 17 -12 41 -20 41 -5 0 -6 -9 -3
-20z"/>
<path d="M2605 2201 c-6 -11 -5 -12 15 -15 6 0 15 -8 20 -16 8 -12 11 -13 19
-1 5 8 11 9 15 3 6 -10 54 -8 64 3 4 4 -8 6 -25 3 -18 -2 -33 -1 -33 3 0 3 -8
9 -17 12 -10 2 -25 8 -34 12 -10 3 -20 2 -24 -4z"/>
<path d="M3412 2181 c-1 -20 6 -30 29 -43 l31 -18 -7 33 c-9 41 -11 44 -33 49
-14 4 -18 -1 -20 -21z"/>
<path d="M2807 2184 c3 -7 9 -14 14 -14 14 0 10 17 -5 23 -10 4 -13 1 -9 -9z"/>
<path d="M2785 2150 c4 -6 11 -8 16 -5 14 9 11 15 -7 15 -8 0 -12 -5 -9 -10z"/>
<path d="M2744 2130 c0 -11 1 -20 3 -20 1 0 7 9 13 20 8 15 8 20 -3 20 -7 0
-13 -9 -13 -20z"/>
<path d="M3252 2103 c-6 -2 -9 -10 -6 -15 5 -8 -5 -9 -32 -5 -27 4 -34 3 -24
-3 8 -5 24 -10 36 -10 12 0 38 -11 58 -25 44 -30 47 -30 39 -7 -6 15 -5 15 10
3 10 -8 20 -11 24 -7 3 3 1 6 -6 6 -7 0 -10 4 -6 9 3 6 19 8 35 6 16 -2 42 0
57 5 25 7 25 8 6 9 -13 1 -23 7 -23 16 0 11 -11 15 -37 16 -21 0 -46 2 -55 4
-9 2 -19 -3 -22 -11 -3 -7 -12 -11 -21 -8 -8 3 -12 10 -9 15 6 10 -3 11 -24 2z"/>
<path d="M3206 2038 c5 -7 2 -9 -9 -5 -9 3 -18 0 -21 -8 -4 -11 0 -12 20 -4
14 5 31 6 37 2 7 -4 6 1 -2 10 -15 19 -36 23 -25 5z"/>
<path d="M3037 2029 c7 -7 15 -10 18 -7 3 3 -2 9 -12 12 -14 6 -15 5 -6 -5z"/>
<path d="M3065 1990 c-16 -7 -17 -9 -3 -9 9 -1 20 4 23 9 7 11 7 11 -20 0z"/>
<path d="M2990 1865 c0 -5 5 -17 10 -25 5 -8 10 -10 10 -5 0 6 -5 17 -10 25
-5 8 -10 11 -10 5z"/>
<path d="M2935 1800 c-3 -6 1 -7 9 -4 18 7 21 14 7 14 -6 0 -13 -4 -16 -10z"/>
<path d="M2854 1765 c-10 -8 -14 -15 -9 -15 6 0 4 -4 -4 -9 -7 -5 -10 -14 -7
-20 4 -6 12 -9 17 -6 5 4 9 -1 9 -9 0 -23 32 -86 41 -80 4 2 14 -4 21 -14 7
-11 15 -20 18 -20 3 0 13 -4 23 -8 10 -3 21 -4 24 0 4 3 -1 6 -9 6 -9 0 -21 7
-29 16 -10 13 -10 17 2 25 12 7 12 9 -2 9 -8 0 -25 18 -37 40 -11 22 -18 40
-14 40 15 0 30 -16 33 -34 2 -11 12 -20 21 -22 15 -2 14 3 -6 29 -13 18 -22
37 -19 44 2 6 -1 15 -8 19 -7 4 -9 3 -5 -4 3 -6 2 -13 -4 -17 -5 -3 -10 0 -10
8 0 26 -25 38 -46 22z m21 -25 c3 -5 1 -10 -4 -10 -6 0 -11 5 -11 10 0 6 2 10
4 10 3 0 8 -4 11 -10z"/>
<path d="M2930 1776 c0 -2 7 -9 15 -16 13 -11 14 -10 9 4 -5 14 -24 23 -24 12z"/>
<path d="M2971 1764 c0 -11 3 -14 6 -6 3 7 2 16 -1 19 -3 4 -6 -2 -5 -13z"/>
<path d="M3050 1769 c0 -5 5 -7 10 -4 6 3 10 8 10 11 0 2 -4 4 -10 4 -5 0 -10
-5 -10 -11z"/>
<path d="M1667 1730 c-68 -179 -86 -245 -72 -253 20 -11 19 -28 -1 -20 -9 3
-20 0 -25 -8 -18 -29 -10 -39 31 -39 26 0 43 -5 46 -14 4 -12 12 -13 32 -5 14
6 38 8 52 4 l25 -5 -25 14 c-16 9 -30 11 -42 5 -25 -13 -38 -11 -32 6 4 8 12
15 18 15 7 0 13 7 13 15 0 10 -10 15 -28 15 -15 0 -31 5 -35 11 -5 8 0 10 17
6 33 -8 69 2 69 19 0 18 9 17 40 -2 14 -8 18 -13 10 -11 -22 6 -62 -11 -55
-24 4 -6 13 -8 20 -5 9 3 11 -2 7 -16 -4 -18 -2 -20 17 -15 16 4 30 -3 52 -24
16 -16 38 -29 49 -29 10 0 27 -3 37 -7 17 -6 17 -6 1 10 -9 9 -26 17 -37 17
-11 0 -23 4 -26 10 -3 6 1 7 9 4 11 -4 16 0 16 12 1 18 1 18 14 1 9 -12 16
-14 21 -8 3 6 1 11 -4 11 -6 0 -11 7 -11 15 0 8 7 15 15 15 9 0 12 -6 9 -15
-4 -9 0 -15 7 -15 10 -1 10 -4 -2 -13 -15 -11 -15 -15 7 -41 20 -23 27 -26 39
-16 13 11 19 8 17 -10 0 -3 13 -7 29 -8 18 -1 29 3 29 10 0 7 8 -2 16 -19 9
-18 20 -30 25 -27 5 3 29 -2 52 -11 24 -9 47 -15 53 -14 5 1 17 -1 27 -6 10
-4 23 -3 28 2 6 6 -4 14 -26 23 -32 13 -49 40 -24 40 5 0 8 4 4 9 -3 5 -1 12
5 16 5 3 10 2 10 -4 0 -6 8 -7 17 -4 13 5 15 2 10 -11 -13 -34 4 -35 39 -3 20
17 43 35 51 38 13 4 13 8 -3 24 -18 18 -18 18 11 13 25 -5 27 -4 13 6 -13 10
-15 15 -6 24 16 16 28 15 28 -3 0 -23 16 -18 55 16 19 17 35 26 35 20 0 -6 -5
-11 -11 -11 -7 0 -9 -9 -6 -21 4 -15 2 -19 -9 -15 -20 8 -18 2 14 -31 33 -36
62 -48 62 -28 0 8 7 15 15 15 8 0 15 -4 15 -10 0 -5 -4 -10 -8 -10 -5 0 -14
-11 -20 -25 -6 -14 -17 -25 -23 -25 -8 0 -8 4 1 15 16 19 1 19 -25 -1 -17 -13
-18 -16 -5 -24 21 -13 22 -13 50 13 14 12 32 21 41 19 20 -4 55 33 40 43 -6 3
-11 11 -11 17 0 6 6 6 15 -2 13 -10 19 -10 33 2 9 9 24 18 32 21 11 4 9 6 -5
7 -19 1 -19 2 4 20 18 15 19 20 7 20 -9 0 -16 5 -16 11 0 7 7 8 18 4 9 -4 28
-8 42 -10 24 -1 26 2 26 37 0 21 -2 35 -5 30 -3 -4 -19 -9 -34 -10 -36 -2 -49
-10 -41 -24 4 -5 -5 -3 -18 6 -23 15 -27 15 -56 0 -31 -15 -45 -31 -19 -21 8
3 12 -6 13 -24 1 -24 -1 -27 -17 -18 -17 9 -24 28 -20 53 1 5 -5 4 -14 -4 -9
-8 -28 -10 -49 -7 -18 3 -38 1 -44 -5 -6 -6 -12 -6 -16 1 -9 13 76 101 97 101
9 0 17 4 17 8 0 5 -78 12 -172 15 -95 4 -202 13 -238 21 -49 10 -69 11 -79 2
-12 -8 -13 -8 -7 2 4 7 2 14 -6 16 -7 2 -32 9 -55 16 -50 15 -100 7 -81 -14 7
-7 19 -11 26 -8 10 3 11 -2 6 -22 -5 -21 -2 -28 17 -35 15 -6 18 -10 8 -10 -9
-1 -27 12 -41 28 -20 22 -32 27 -52 24 -16 -3 -23 -10 -19 -17 4 -6 9 -20 10
-31 l3 -20 -12 20 c-6 11 -18 26 -25 33 -19 19 -16 30 10 37 35 11 77 29 77
35 0 5 -131 60 -144 60 -4 0 -4 -5 0 -12 4 -7 3 -8 -5 -4 -6 4 -8 12 -5 18 5
7 0 9 -14 6 -14 -4 -22 -1 -24 11 -2 9 -11 -3 -21 -29z m48 -51 c4 -6 13 -8
21 -5 8 3 11 0 7 -10 -6 -17 -23 -19 -23 -3 0 7 -10 9 -27 4 -23 -5 -25 -4
-14 9 16 19 27 20 36 5z m55 -29 c0 -5 -5 -10 -11 -10 -5 0 -7 5 -4 10 3 6 8
10 11 10 2 0 4 -4 4 -10z m180 -29 c0 -3 -4 -12 -9 -19 -6 -10 -10 -10 -21 3
-11 13 -10 14 6 8 17 -6 17 -5 5 10 -12 15 -12 17 3 11 9 -3 16 -9 16 -13z
m-195 0 c-3 -5 -1 -12 5 -16 5 -3 10 -14 10 -23 0 -14 -2 -14 -9 -3 -5 8 -14
10 -21 6 -9 -5 -11 -4 -6 3 4 7 1 12 -8 12 -9 0 -16 -4 -16 -9 0 -5 -9 -11
-21 -14 -17 -5 -18 -3 -7 10 7 9 26 22 43 29 37 16 38 16 30 5z m330 -30 c-6
-5 -25 10 -25 20 0 5 6 4 14 -3 8 -7 12 -15 11 -17z m-85 -6 c0 -8 -4 -15 -8
-15 -5 0 -9 7 -9 15 0 8 4 15 9 15 4 0 8 -7 8 -15z m180 -9 c0 -2 -7 -9 -15
-16 -12 -10 -15 -10 -15 4 0 9 7 16 15 16 8 0 15 -2 15 -4z m-109 -28 c-4 -13
-7 -29 -5 -36 1 -7 0 -8 -3 -2 -2 5 -9 8 -14 4 -14 -8 -11 9 7 34 19 28 26 28
15 0z m-281 -19 c0 -16 -4 -29 -10 -29 -5 0 -10 8 -10 18 0 10 -4 22 -10 28
-6 6 -3 10 10 11 16 1 20 -4 20 -28z m220 25 c0 -2 -9 -8 -20 -14 -15 -8 -18
-8 -14 3 4 11 34 21 34 11z m-140 -25 c0 -11 -4 -18 -10 -14 -5 3 -7 12 -3 20
7 21 13 19 13 -6z m60 13 c0 -4 -9 -8 -19 -8 -11 0 -17 4 -15 8 3 4 12 8 20 8
8 0 14 -4 14 -8z m170 -13 c0 -5 -4 -9 -10 -9 -5 0 -10 7 -10 16 0 8 5 12 10
9 6 -3 10 -10 10 -16z m-400 1 c0 -5 -5 -10 -11 -10 -5 0 -7 5 -4 10 3 6 8 10
11 10 2 0 4 -4 4 -10z m-40 -10 c11 -7 7 -10 -17 -10 -18 0 -33 5 -33 10 0 13
30 13 50 0z m253 -35 c4 -8 2 -17 -2 -20 -5 -2 -11 4 -14 15 -6 23 8 27 16 5z
m191 -1 c3 -8 2 -12 -4 -9 -6 3 -10 10 -10 16 0 14 7 11 14 -7z m-286 -2 c12
10 12 7 -2 -14 -20 -31 -29 -36 -20 -13 5 12 2 14 -12 8 -17 -6 -18 -5 -4 11
9 12 16 14 18 7 3 -9 8 -8 20 1z m877 -2 c-3 -5 -11 -10 -16 -10 -6 0 -7 5 -4
10 3 6 11 10 16 10 6 0 7 -4 4 -10z m-495 -22 c0 -16 -3 -19 -11 -11 -6 6 -8
16 -5 22 11 17 16 13 16 -11z m200 2 c0 -5 -9 -8 -20 -7 -20 1 -25 8 -14 20 8
7 34 -3 34 -13z m104 -19 c10 -11 24 -17 31 -15 7 3 16 1 20 -5 3 -6 -1 -11
-9 -11 -10 0 -13 -6 -9 -16 4 -12 2 -15 -8 -12 -8 3 -14 12 -14 21 0 8 -11 25
-24 36 -13 12 -20 21 -14 21 5 0 18 -9 27 -19z m-872 -13 c-6 -6 -15 -8 -19
-4 -4 4 -1 11 7 16 19 12 27 3 12 -12z m853 -8 c14 -15 15 -20 4 -20 -15 1
-49 23 -49 34 0 13 28 5 45 -14z m-397 -17 c-14 -17 -1 -46 17 -39 15 5 21 -9
7 -17 -11 -7 -52 29 -44 38 4 5 1 5 -5 1 -17 -9 -33 1 -27 17 2 7 17 12 33 12
22 0 27 -3 19 -12z m178 -46 c-14 -15 -26 -23 -26 -20 0 10 43 54 47 49 2 -2
-7 -15 -21 -29z"/>
<path d="M3003 1723 c-19 -7 -16 -27 6 -47 14 -13 21 -14 27 -5 4 7 3 10 -3 6
-14 -9 -37 19 -28 33 3 6 11 7 17 4 7 -4 8 -2 4 4 -4 7 -8 12 -9 11 -1 0 -8
-3 -14 -6z"/>
<path d="M2792 1694 c-19 -18 -20 -23 -7 -28 8 -3 15 -1 15 5 0 6 7 9 15 5 16
-6 20 12 7 29 -4 7 -16 2 -30 -11z"/>
<path d="M3083 1698 c1 -45 -3 -62 -15 -50 -16 16 -28 15 -28 -1 0 -8 11 -13
28 -12 21 0 26 5 24 19 -2 10 2 22 8 26 8 5 7 10 -3 19 -12 9 -15 9 -14 -1z"/>
<path d="M2820 1656 c0 -2 7 -9 15 -16 9 -7 15 -8 15 -2 0 5 -7 12 -15 16 -8
3 -15 4 -15 2z"/>
<path d="M3005 1618 c11 -6 26 -18 33 -26 6 -9 12 -11 12 -4 0 12 -39 42 -55
42 -5 0 -1 -6 10 -12z"/>
<path d="M3167 1624 c-12 -12 -8 -24 7 -24 8 0 16 -5 18 -12 3 -7 7 -4 12 7 4
11 4 16 0 12 -4 -4 -12 0 -18 9 -6 8 -15 12 -19 8z"/>
<path d="M2605 1613 c-11 -2 -31 -6 -44 -9 -13 -3 -21 -8 -17 -11 9 -10 56
-10 56 0 0 4 5 5 10 2 6 -3 10 -2 10 4 0 6 7 7 17 4 11 -4 14 -3 9 5 -4 7 -10
11 -14 11 -4 -1 -16 -3 -27 -6z"/>
<path d="M2853 1598 c-2 -18 0 -20 7 -8 12 18 13 30 2 30 -4 0 -9 -10 -9 -22z"/>
<path d="M3115 1590 c21 -24 37 -26 29 -5 -4 8 -10 12 -15 9 -5 -3 -9 0 -9 5
0 6 -5 11 -12 11 -6 0 -3 -9 7 -20z"/>
<path d="M2880 1591 c0 -5 14 -19 30 -31 17 -12 30 -17 30 -13 0 5 -13 19 -30
31 -16 13 -30 18 -30 13z"/>
<path d="M2660 1565 c0 -7 30 -13 34 -7 3 4 -4 9 -15 9 -10 1 -19 0 -19 -2z"/>
<path d="M2580 1546 c0 -12 10 -16 38 -15 34 1 35 1 10 9 -14 4 -31 11 -37 15
-6 3 -11 -1 -11 -9z"/>
<path d="M3144 1536 c11 -9 24 -16 30 -16 12 0 7 5 -24 19 -24 11 -24 11 -6
-3z"/>
<path d="M3072 1516 c0 -11 4 -26 10 -34 10 -12 13 -11 19 5 6 15 10 12 23
-20 11 -24 21 -35 28 -31 9 6 9 9 0 12 -7 2 -9 8 -6 13 3 6 -4 18 -15 28 -12
10 -21 23 -21 29 0 5 -8 12 -18 14 -13 4 -18 -1 -20 -16z m28 -6 c0 -5 -4 -10
-10 -10 -5 0 -10 5 -10 10 0 6 5 10 10 10 6 0 10 -4 10 -10z"/>
<path d="M2943 1505 c-7 -8 -9 -16 -4 -19 5 -3 12 1 15 10 8 22 4 25 -11 9z"/>
<path d="M2786 1493 c11 -10 19 -24 16 -31 -6 -18 25 -4 32 15 8 20 6 22 -35
29 -34 5 -34 5 -13 -13z"/>
<path d="M2855 1490 c8 -13 46 -19 42 -7 -2 6 -13 11 -25 12 -11 1 -19 -2 -17
-5z"/>
<path d="M2990 1490 c0 -5 5 -10 10 -10 6 0 10 5 10 10 0 6 -4 10 -10 10 -5 0
-10 -4 -10 -10z"/>
<path d="M2905 1460 c-3 -5 -2 -10 4 -10 5 0 13 5 16 10 3 6 2 10 -4 10 -5 0
-13 -4 -16 -10z"/>
<path d="M2951 1461 c-9 -6 -10 -14 -5 -24 8 -13 11 -12 21 9 12 25 7 30 -16
15z"/>
<path d="M3030 1463 c0 -8 -7 -10 -17 -6 -16 6 -17 5 -3 -12 14 -17 13 -18
-12 -13 -24 5 -28 2 -28 -19 0 -15 4 -22 11 -17 6 3 3 -5 -6 -20 -12 -18 -21
-23 -29 -17 -6 5 -14 10 -18 10 -5 1 -8 4 -9 9 0 4 -10 13 -22 19 -21 13 -21
13 5 9 18 -3 27 0 25 7 -5 28 -53 36 -87 15 -16 -10 -23 -9 -40 7 -20 19 -22
19 -55 1 -19 -11 -32 -23 -29 -28 3 -5 2 -8 -3 -7 -25 4 -34 -2 -28 -21 7 -22
-10 -28 -19 -7 -3 6 -3 2 0 -11 4 -16 2 -23 -8 -21 -33 4 -40 -1 -36 -26 3
-14 -1 -30 -8 -36 -11 -9 -14 -8 -14 1 0 16 -13 5 -16 -13 -1 -7 -5 -20 -9
-29 -5 -12 -2 -18 6 -18 12 0 12 -2 0 -9 -8 -5 -14 -22 -15 -38 -1 -29 -2 -29
-33 -20 -18 6 -33 16 -33 23 0 8 -6 11 -15 8 -8 -4 -15 -14 -15 -23 0 -14 2
-14 10 -1 8 13 10 12 10 -2 0 -10 -6 -18 -14 -18 -21 0 -30 -20 -17 -33 8 -8
11 -8 11 1 0 7 5 12 11 12 5 0 8 -4 5 -9 -9 -15 25 -24 98 -27 46 -2 65 1 58
8 -7 7 -5 16 7 28 9 10 23 27 31 38 12 16 20 18 40 10 15 -6 20 -12 12 -15 -6
-3 -10 -9 -6 -14 5 -9 -11 -19 -43 -23 -10 -2 -19 -10 -21 -19 -3 -14 1 -15
20 -8 13 4 29 6 37 3 9 -3 11 0 6 8 -6 9 0 10 24 5 39 -8 100 3 80 16 -7 4
-10 11 -6 15 4 4 13 2 19 -4 18 -18 49 -15 42 3 -4 8 -1 15 5 15 6 0 11 -4 11
-10 0 -5 7 -10 15 -10 8 0 15 5 15 10 0 6 -6 10 -14 10 -8 0 -16 5 -18 11 -2
7 -18 5 -48 -5 -56 -20 -61 -20 -54 -1 4 8 14 15 25 15 25 0 44 36 24 44 -8 3
-15 16 -15 30 0 25 16 43 28 31 3 -3 0 -10 -8 -15 -12 -7 -12 -12 3 -28 9 -10
17 -26 17 -36 0 -10 5 -14 11 -11 15 10 69 -15 69 -31 0 -11 8 -11 43 3 41 17
66 38 66 58 1 6 -7 1 -17 -10 -9 -11 -16 -18 -15 -16 1 2 -2 11 -6 20 -8 13
-4 16 22 16 29 0 32 3 29 28 -2 22 2 30 17 34 11 3 18 10 15 16 -2 7 7 13 22
14 20 1 23 -1 13 -8 -12 -8 -12 -10 0 -18 8 -5 21 -6 30 -3 14 5 14 4 1 -12
-13 -16 -12 -18 10 -14 30 4 37 24 10 33 -11 3 -18 10 -15 15 3 5 -7 12 -22
16 -15 3 -35 8 -44 10 -18 5 -39 45 -39 73 0 21 -39 73 -40 54z m-221 -50 c2
-1 -6 -14 -18 -29 -14 -18 -21 -22 -21 -11 0 9 5 19 10 22 7 4 6 14 -2 28 -11
21 -10 21 8 7 10 -8 21 -15 23 -17z m78 11 c-3 -3 -12 -4 -19 -1 -8 3 -5 6 6
6 11 1 17 -2 13 -5z m-137 -14 c0 -5 -5 -10 -11 -10 -5 0 -7 5 -4 10 3 6 8 10
11 10 2 0 4 -4 4 -10z m114 -30 c-3 -2 -9 2 -14 10 -7 10 -10 11 -10 3 0 -7
-4 -13 -10 -13 -14 0 -12 28 3 33 12 4 39 -24 31 -33z m21 -20 c3 -5 1 -10 -4
-10 -6 0 -11 5 -11 10 0 6 2 10 4 10 3 0 8 -4 11 -10z m115 -35 c-21 -25 -31
-6 -12 23 14 21 17 23 20 9 2 -10 -2 -24 -8 -32z m-150 25 c0 -5 -4 -10 -10
-10 -5 0 -10 5 -10 10 0 6 5 10 10 10 6 0 10 -4 10 -10z m-124 -13 c16 6 17 5
4 -8 -17 -19 -61 -13 -53 7 4 10 9 12 18 4 7 -6 21 -7 31 -3z m78 7 c16 -6 12
-24 -5 -24 -6 0 -7 5 -4 10 3 6 2 10 -4 10 -5 0 -11 -5 -13 -12 -3 -7 -9 -8
-18 -3 -11 7 -10 10 6 16 10 4 20 8 21 8 1 1 8 -2 17 -5z m136 -4 c0 -5 -5
-10 -11 -10 -5 0 -7 5 -4 10 3 6 8 10 11 10 2 0 4 -4 4 -10z m-130 -40 c0 -5
-4 -10 -10 -10 -5 0 -10 5 -10 10 0 6 5 10 10 10 6 0 10 -4 10 -10z m10 -67
c0 -20 -16 -8 -23 17 -4 17 -3 19 9 9 8 -6 14 -18 14 -26z m-120 23 c0 -3 -4
-8 -10 -11 -5 -3 -10 -1 -10 4 0 6 5 11 10 11 6 0 10 -2 10 -4z m-75 -16 c3
-5 2 -10 -4 -10 -5 0 -13 5 -16 10 -3 6 -2 10 4 10 5 0 13 -4 16 -10z m339
-11 c-2 -4 -15 -6 -29 -6 -13 0 -22 3 -20 7 3 4 16 7 29 6 13 0 22 -4 20 -7z
m-154 -109 c0 -5 -2 -10 -4 -10 -3 0 -8 5 -11 10 -3 6 -1 10 4 10 6 0 11 -4
11 -10z m-240 -15 c-7 -8 -18 -15 -24 -15 -6 0 -2 7 8 15 25 19 32 19 16 0z"/>
<path d="M2700 1440 c-8 -5 -12 -11 -10 -14 3 -2 14 2 24 10 22 15 10 19 -14
4z"/>
<path d="M3078 1439 c6 -7 12 -19 12 -26 0 -18 40 -56 59 -58 9 0 22 -4 29 -9
22 -13 13 1 -23 37 -32 32 -104 84 -77 56z"/>
<path d="M3167 1426 c-3 -8 2 -16 13 -19 11 -3 21 2 25 11 3 9 3 13 -1 9 -4
-4 -13 -2 -19 3 -9 7 -14 6 -18 -4z"/>
<path d="M1770 1395 c7 -8 17 -15 22 -15 6 0 5 7 -2 15 -7 8 -17 15 -22 15 -6
0 -5 -7 2 -15z"/>
<path d="M1569 1393 c-20 -3 -29 -13 -37 -40 -13 -42 -4 -65 36 -90 15 -10 30
-22 34 -28 5 -7 8 -6 8 1 0 16 -35 45 -44 37 -4 -4 -4 0 -1 9 6 16 9 16 33 1
27 -17 27 -17 7 3 -11 11 -31 25 -45 31 -25 12 -25 12 -2 14 36 3 40 4 48 12
4 4 -2 7 -13 7 -12 0 -23 7 -27 15 -4 13 -2 13 14 5 10 -5 27 -10 38 -10 11 0
26 -8 33 -17 12 -15 12 -16 -4 -10 -11 4 -16 3 -12 -3 3 -6 21 -10 38 -9 18 0
26 3 19 6 -10 4 -10 9 3 24 16 17 16 18 -11 16 -17 -1 -36 5 -46 15 -10 10
-24 17 -30 17 -7 -1 -25 -4 -39 -6z"/>
<path d="M2350 1385 c-8 -9 -8 -15 -2 -15 12 0 26 19 19 26 -2 2 -10 -2 -17
-11z"/>
<path d="M2630 1390 c0 -5 7 -7 15 -4 8 4 15 8 15 10 0 2 -7 4 -15 4 -8 0 -15
-4 -15 -10z"/>
<path d="M2389 1380 c-7 -5 -10 -12 -6 -17 5 -4 12 -1 17 7 8 13 10 12 10 -3
0 -10 5 -15 10 -12 6 3 10 10 10 15 0 13 -25 19 -41 10z"/>
<path d="M1727 1369 c7 -7 15 -10 18 -7 3 3 -2 9 -12 12 -14 6 -15 5 -6 -5z"/>
<path d="M2615 1360 c3 -5 0 -10 -8 -10 -14 0 -27 -20 -27 -40 0 -4 7 -11 16
-14 11 -4 14 -1 9 13 -3 10 1 24 10 31 17 14 20 30 4 30 -5 0 -7 -4 -4 -10z"/>
<path d="M1725 1340 c27 -12 43 -12 25 0 -8 5 -22 9 -30 9 -10 0 -8 -3 5 -9z"/>
<path d="M1800 1340 c0 -5 5 -10 10 -10 6 0 10 5 10 10 0 6 -4 10 -10 10 -5 0
-10 -4 -10 -10z"/>
<path d="M2430 1339 c0 -5 5 -7 10 -4 6 3 10 8 10 11 0 2 -4 4 -10 4 -5 0 -10
-5 -10 -11z"/>
<path d="M3190 1310 c0 -5 5 -10 11 -10 5 0 7 5 4 10 -3 6 -8 10 -11 10 -2 0
-4 -4 -4 -10z"/>
<path d="M1640 1296 c0 -9 40 -13 46 -5 3 5 -6 9 -20 9 -14 0 -26 -2 -26 -4z"/>
<path d="M1700 1290 c0 -4 6 -8 13 -7 30 1 48 -4 43 -11 -3 -5 9 -8 27 -7 18
1 44 -1 60 -6 16 -5 25 -4 22 2 -4 5 -15 9 -25 9 -10 0 -21 4 -25 10 -3 5 -13
6 -22 3 -9 -4 -14 -2 -11 3 3 5 -14 10 -38 10 -24 1 -44 -2 -44 -6z"/>
<path d="M2490 1289 c0 -5 5 -7 10 -4 6 3 10 8 10 11 0 2 -4 4 -10 4 -5 0 -10
-5 -10 -11z"/>
<path d="M1976 1275 c4 -8 10 -15 15 -15 5 0 9 7 9 15 0 8 -7 15 -15 15 -9 0
-12 -6 -9 -15z"/>
<path d="M2024 1275 c-4 -8 -1 -22 6 -30 10 -12 10 -15 -2 -15 -8 0 -19 5 -26
12 -8 8 -12 8 -12 1 0 -6 14 -16 30 -22 17 -5 28 -7 26 -2 -3 4 4 17 14 29 20
21 20 21 1 32 -26 13 -31 13 -37 -5z"/>
<path d="M2330 1280 c-9 -6 -10 -10 -3 -10 6 0 15 5 18 10 8 12 4 12 -15 0z"/>
<path d="M2550 1260 c-8 -5 -11 -12 -7 -16 4 -4 15 0 24 9 18 18 8 23 -17 7z"/>
<path d="M1892 1251 c-11 -7 -10 -9 3 -14 9 -4 14 -3 10 2 -3 5 1 12 7 14 7 3
9 6 3 6 -5 0 -16 -3 -23 -8z"/>
<path d="M2250 1250 c-13 -8 -12 -11 4 -23 13 -9 16 -19 10 -28 -6 -10 0 -9
19 4 35 23 50 22 42 -3 -8 -24 10 -27 19 -4 4 9 5 17 4 18 -2 1 -17 11 -35 24
-36 25 -42 26 -63 12z"/>
<path d="M1930 1239 c0 -5 5 -7 10 -4 6 3 10 8 10 11 0 2 -4 4 -10 4 -5 0 -10
-5 -10 -11z"/>
<path d="M1745 1229 c-4 -6 -5 -12 -2 -15 2 -3 7 2 10 11 7 17 1 20 -8 4z"/>
<path d="M1810 1225 c-25 -14 -24 -14 17 -15 34 0 41 3 37 15 -7 19 -22 19
-54 0z"/>
<path d="M3090 1225 c-7 -8 -9 -15 -6 -15 4 0 14 7 22 15 9 8 11 15 6 15 -5 0
-15 -7 -22 -15z"/>
<path d="M2510 1219 c0 -5 5 -7 10 -4 6 3 10 8 10 11 0 2 -4 4 -10 4 -5 0 -10
-5 -10 -11z"/>
<path d="M2540 1220 c0 -5 0 -13 1 -16 0 -4 -5 -11 -13 -16 -9 -7 -8 -8 7 -5
11 2 19 9 18 15 -2 7 2 12 8 12 5 0 7 5 4 10 -3 6 -10 10 -16 10 -5 0 -9 -4
-9 -10z"/>
<path d="M1688 1213 c7 -3 16 -2 19 1 4 3 -2 6 -13 5 -11 0 -14 -3 -6 -6z"/>
<path d="M2224 1178 c-10 -32 -35 -49 -51 -36 -9 7 -13 7 -13 -1 0 -6 3 -12 8
-12 44 -7 62 -6 57 2 -4 5 1 9 10 9 12 0 13 4 7 18 -5 9 -7 23 -5 30 3 6 2 12
0 12 -3 0 -9 -10 -13 -22z"/>
<path d="M2369 1141 l-24 -20 23 6 c23 5 38 20 29 29 -2 2 -15 -4 -28 -15z"/>
<path d="M2686 1145 c-3 -9 0 -15 8 -15 8 0 16 7 20 15 3 9 0 15 -8 15 -8 0
-16 -7 -20 -15z"/>
<path d="M1950 1141 c0 -19 20 -22 36 -7 14 15 13 16 -10 16 -14 0 -26 -4 -26
-9z"/>
<path d="M2015 1120 c3 -5 8 -10 11 -10 2 0 4 5 4 10 0 6 -5 10 -11 10 -5 0
-7 -4 -4 -10z"/>
<path d="M2250 1112 c0 -5 -12 -13 -27 -19 -26 -10 -25 -11 19 -10 43 2 45 3
31 20 -18 19 -23 21 -23 9z"/>
<path d="M2460 1080 c0 -5 7 -10 15 -10 8 0 15 5 15 10 0 6 -7 10 -15 10 -8 0
-15 -4 -15 -10z"/>
</g>
</svg>
